<?xml version="1.0" encoding="utf-8"?>
<!-- Generator: Adobe Illustrator 27.5.0, SVG Export Plug-In . SVG Version: 6.00 Build 0)  -->
<svg version="1.1" xmlns="http://www.w3.org/2000/svg" xmlns:xlink="http://www.w3.org/1999/xlink" x="0px" y="0px"
	 viewBox="0 0 500 500" style="enable-background:new 0 0 500 500;" xml:space="preserve">
<g id="BACKGROUND">
</g>
<g id="OBJECTS">
	<g>
		<path style="fill:#604661;" d="M400.996,346.888l-10.109-17.695c-1.576-2.758-1.588-5.918-0.035-8.682l9.717-19.029
			c0.02-0.038,0.04-0.076,0.061-0.113c1.152-2.017,1.147-4.932-0.013-6.931c-0.892-1.538-2.297-2.317-4.175-2.317H272.616h-45.232
			H103.558c-1.878,0-3.283,0.78-4.175,2.317c-1.16,1.999-1.165,4.914-0.013,6.931c0.021,0.037,0.042,0.075,0.061,0.113l9.717,19.029
			c1.553,2.764,1.541,5.924-0.035,8.682l-10.109,17.695c-1.191,2.085-1.025,5.61,0.377,8.025c1.005,1.732,2.41,2.609,4.177,2.609
			h123.826h45.232h123.826c1.766,0,3.172-0.878,4.177-2.609C402.021,352.498,402.187,348.973,400.996,346.888z"/>
		<g>
			
				<text transform="matrix(1 0 0 1 120.9042 345.5338)" style="fill:#FFFFFF; font-family:'Poppins-ExtraBold'; font-size:54.4138px; letter-spacing:4;">MARKET</text>
			
				<text transform="matrix(1 0 0 1 123.6575 376.9542)" style="fill:#0067B0; font-family:'Poppins-Bold'; font-size:15.4436px; letter-spacing:1;">YOUR SLOGAN YOUR SLOGAN</text>
		</g>
		<g>
			<path style="fill:#604661;stroke:#604661;stroke-width:5;stroke-linecap:round;stroke-linejoin:round;stroke-miterlimit:10;" d="
				M334.884,164.37l-19.916-10.132v6.502h-91.805c-4.124,0-7.467,3.343-7.467,7.467v95.324c0,4.124,3.343,7.467,7.467,7.467
				l91.805,6.417l18.92-10.372c3.689-1.777,5.193-3.781,5.193-7.112v-88.857C339.081,168.126,337.367,165.584,334.884,164.37z"/>
			<path style="fill:#E4E4E6;stroke:#604661;stroke-width:5;stroke-linecap:round;stroke-linejoin:round;stroke-miterlimit:10;" d="
				M317.647,117.906l-0.001-0.008l-2.749-2.742l-0.395,1.422c-0.046-0.001-0.09-0.014-0.136-0.014H191.748
				c-2.597,0-4.702,2.105-4.702,4.702v18.573l-1.696,1.102l2.817,2.782c0.185,0.22,0.388,0.42,0.61,0.602l0.11,0.109l0.016-0.005
				c0.792,0.606,1.77,0.981,2.844,0.981h122.618c2.597,0,4.702-2.105,4.702-4.702v-19.443
				C319.068,119.948,318.522,118.759,317.647,117.906z"/>
			<path style="fill:#FFFFFF;stroke:#604661;stroke-width:5;stroke-linecap:round;stroke-linejoin:round;stroke-miterlimit:10;" d="
				M310.505,278.772H192.689c-4.706,0-8.52-3.815-8.52-8.52V166.675c0-7.57,6.137-13.706,13.706-13.706h112.63
				c4.706,0,8.52,3.815,8.52,8.52v108.763C319.025,274.957,315.211,278.772,310.505,278.772z"/>
			<g>
				<defs>
					<path id="SVGID_1_" d="M319.025,211.094v-49.605c0-4.706-3.696-8.52-8.255-8.52H164.494c-4.559,0-8.255,3.815-8.255,8.52
						v49.605H319.025z"/>
				</defs>
				<clipPath id="SVGID_00000112619196518352233330000000057090633915963821_">
					<use xlink:href="#SVGID_1_"  style="overflow:visible;"/>
				</clipPath>
				<g style="clip-path:url(#SVGID_00000112619196518352233330000000057090633915963821_);">
					
						<path style="fill:#FFFFFF;stroke:#604661;stroke-width:5;stroke-linecap:round;stroke-linejoin:round;stroke-miterlimit:10;" d="
						M292.224,174.201h-125.81l23.941-18.967c1.855-1.47,4.129-2.266,6.467-2.266h122.203L292.224,174.201z"/>
					
						<rect x="166.414" y="174.201" style="fill:#FFFFFF;stroke:#604661;stroke-width:5;stroke-linecap:round;stroke-linejoin:round;stroke-miterlimit:10;" width="125.705" height="8.493"/>
					
						<polygon style="fill:#FFFFFF;stroke:#604661;stroke-width:5;stroke-linecap:round;stroke-linejoin:round;stroke-miterlimit:10;" points="
						319.025,152.968 319.025,161.462 292.119,182.695 292.119,174.201 					"/>
					
						<path style="fill:#604661;stroke:#604661;stroke-width:5;stroke-linecap:round;stroke-linejoin:round;stroke-miterlimit:10;" d="
						M274.161,182.695h-17.958h-17.958h-17.958H202.33h-17.958h-17.958v10.16c0,3.185,4.02,5.766,8.979,5.766
						c4.959,0,8.979-2.581,8.979-5.766c0,3.185,4.02,5.766,8.979,5.766c4.959,0,8.979-2.581,8.979-5.766
						c0,3.185,4.02,5.766,8.979,5.766c4.959,0,8.979-2.581,8.979-5.766c0,3.185,4.02,5.766,8.979,5.766
						c4.959,0,8.979-2.581,8.979-5.766c0,3.185,4.02,5.766,8.979,5.766c4.959,0,8.979-2.581,8.979-5.766
						c0,3.185,4.02,5.766,8.979,5.766c4.959,0,8.979-2.581,8.979-5.766c0,3.185,4.02,5.766,8.979,5.766s8.979-2.581,8.979-5.766
						v-10.16H274.161z"/>
				</g>
			</g>
			<path style="fill:#FFFFFF;stroke:#604661;stroke-width:5;stroke-linecap:round;stroke-linejoin:round;stroke-miterlimit:10;" d="
				M311.489,142.534H188.871c-2.597,0-4.702-2.105-4.702-4.702V118.39c0-2.597,2.105-4.702,4.702-4.702h122.618
				c2.597,0,4.702,2.105,4.702,4.702v19.443C316.191,140.429,314.086,142.534,311.489,142.534z"/>
			<g>
				<g>
					<path style="fill:#604661;" d="M276.644,215.496c6.14,0,11.134,4.995,11.134,11.134v49.553h-82.144V226.63
						c0-6.14,4.995-11.134,11.134-11.134H276.644 M276.644,211.496h-59.876c-8.345,0-15.134,6.789-15.134,15.134v49.553v4h4h82.144
						h4v-4V226.63C291.778,218.285,284.989,211.496,276.644,211.496L276.644,211.496z"/>
				</g>
				<path style="fill:#0067B0;" d="M246.705,276.183h-36.826V226.63c0-3.804,3.084-6.888,6.888-6.888h29.938V276.183z"/>
				<path style="fill:#0067B0;" d="M283.531,276.183h-36.826v-56.441h29.938c3.804,0,6.888,3.084,6.888,6.888V276.183z"/>
				<g>
					<path style="fill:#FFFFFF;" d="M260.846,250.373h-7.667c-0.439,0-0.795-0.356-0.795-0.795v-0.82
						c0-0.439,0.356-0.795,0.795-0.795h7.667c0.439,0,0.795,0.356,0.795,0.795v0.82
						C261.641,250.017,261.285,250.373,260.846,250.373z"/>
					<path style="fill:#FFFFFF;" d="M240.232,250.373h-7.667c-0.439,0-0.795-0.356-0.795-0.795v-0.82
						c0-0.439,0.356-0.795,0.795-0.795h7.667c0.439,0,0.795,0.356,0.795,0.795v0.82
						C241.027,250.017,240.671,250.373,240.232,250.373z"/>
				</g>
				
					<line style="fill:none;stroke:#FFFFFF;stroke-width:3;stroke-miterlimit:10;" x1="246.705" y1="217.796" x2="246.705" y2="276.183"/>
			</g>
			<g>
				<rect x="208.504" y="143.604" style="fill:#604661;" width="7.616" height="9.364"/>
				<rect x="277.511" y="143.604" style="fill:#604661;" width="7.616" height="9.364"/>
			</g>
			
				<text transform="matrix(1 0 0 1 206.1882 136.9018)" style="fill:#0067B0; font-family:'Poppins-SemiBold'; font-size:25.0178px; letter-spacing:2;">SUPER</text>
			<g>
				
					<line style="fill:none;stroke:#FFFFFF;stroke-width:3;stroke-linecap:round;stroke-linejoin:round;stroke-miterlimit:10;" x1="274.219" y1="197.131" x2="274.219" y2="199.01"/>
				
					<line style="fill:none;stroke:#FFFFFF;stroke-width:3;stroke-linecap:round;stroke-linejoin:round;stroke-miterlimit:10;" x1="256.223" y1="197.131" x2="256.223" y2="199.01"/>
				
					<line style="fill:none;stroke:#FFFFFF;stroke-width:3;stroke-linecap:round;stroke-linejoin:round;stroke-miterlimit:10;" x1="238.227" y1="197.131" x2="238.227" y2="199.01"/>
				
					<line style="fill:none;stroke:#FFFFFF;stroke-width:3;stroke-linecap:round;stroke-linejoin:round;stroke-miterlimit:10;" x1="220.23" y1="197.131" x2="220.23" y2="199.01"/>
				
					<line style="fill:none;stroke:#FFFFFF;stroke-width:3;stroke-linecap:round;stroke-linejoin:round;stroke-miterlimit:10;" x1="202.234" y1="197.131" x2="202.234" y2="199.01"/>
				
					<line style="fill:none;stroke:#FFFFFF;stroke-width:3;stroke-linecap:round;stroke-linejoin:round;stroke-miterlimit:10;" x1="184.237" y1="197.131" x2="184.237" y2="199.01"/>
			</g>
		</g>
	</g>
</g>
</svg>
